<?xml version="1.0" encoding="utf-8"?>
<!-- Generator: Adobe Illustrator 25.0.1, SVG Export Plug-In . SVG Version: 6.00 Build 0)  -->
<svg version="1.1" id="Capa_1" xmlns="http://www.w3.org/2000/svg" xmlns:xlink="http://www.w3.org/1999/xlink" x="0px" y="0px"
	 viewBox="0 0 308 62" style="enable-background:new 0 0 308 62;" xml:space="preserve">
<style type="text/css">
	.st0{fill:#FFFFFF;}
	.st1{fill:none;stroke:#FFFFFF;stroke-miterlimit:10;}
	.st2{fill:#707070;}
	.st3{fill:#CFD9E0;}
	.st4{fill:#FF5773;}
</style>
<g>
	<g>
		<path class="st2" d="M97,30.5l1.6-3.6c1.7,1.3,4.3,2.1,6.8,2.1c2.8,0,4-0.9,4-2.2c0-3.9-12-1.2-12-8.9c0-3.5,2.8-6.4,8.7-6.4
			c2.6,0,5.2,0.6,7.2,1.8l-1.5,3.6c-1.9-1.1-3.9-1.6-5.7-1.6c-2.8,0-3.9,1.1-3.9,2.4c0,3.8,12,1.2,12,8.7c0,3.4-2.9,6.4-8.7,6.4
			C102.1,32.9,98.8,31.9,97,30.5z"/>
		<path class="st2" d="M144.5,11.9v20.6h-3.9L130.3,20v12.5h-4.7V11.9h3.9l10.2,12.5V11.9H144.5z"/>
		<path class="st2" d="M173.6,28.7v3.8h-16V11.9h15.6v3.8h-10.8v4.5h9.6v3.7h-9.6v4.8H173.6z"/>
		<path class="st2" d="M199.2,28.1h-9.6l-1.8,4.4h-4.9l9.2-20.6h4.7l9.2,20.6h-5L199.2,28.1z M197.7,24.5l-3.3-7.9l-3.3,7.9H197.7z"
			/>
		<path class="st2" d="M223.9,24.4l-2.8,2.9v5.2h-4.7V11.9h4.7v9.6l9.1-9.6h5.3l-8.5,9.2l9,11.4h-5.6L223.9,24.4z"/>
	</g>
</g>
<g>
	<g>
		<path class="st3" d="M96.9,45.1c0-2.5,1.9-4.4,4.5-4.4c1.3,0,2.4,0.4,3.2,1.3l-0.6,0.6c-0.7-0.7-1.6-1-2.6-1
			c-2.1,0-3.7,1.5-3.7,3.6c0,2.1,1.6,3.6,3.7,3.6c1,0,1.9-0.3,2.6-1l0.6,0.6c-0.8,0.8-1.9,1.3-3.2,1.3
			C98.9,49.5,96.9,47.7,96.9,45.1z"/>
		<path class="st3" d="M116,49.5l-2-2.8c-0.2,0-0.4,0-0.7,0H111v2.8h-0.9v-8.7h3.2c2.2,0,3.5,1.1,3.5,3c0,1.4-0.7,2.3-2,2.7l2.1,3
			H116z M116,43.8c0-1.4-0.9-2.2-2.7-2.2H111v4.3h2.3C115.1,45.9,116,45.1,116,43.8z"/>
		<path class="st3" d="M128.7,48.7v0.8h-6.1v-8.7h5.9v0.8h-5v3.1h4.5v0.8h-4.5v3.2H128.7z"/>
		<path class="st3" d="M139.8,47.1H135l-1,2.3h-1l4-8.7h0.9l4,8.7h-1L139.8,47.1z M139.5,46.4l-2.1-4.7l-2.1,4.7H139.5z"/>
		<path class="st3" d="M148,41.6h-3v-0.8h7v0.8h-3v7.9H148V41.6z"/>
		<path class="st3" d="M157,40.8h0.9v8.7H157V40.8z"/>
		<path class="st3" d="M171.3,40.8l-3.8,8.7h-0.9l-3.8-8.7h1l3.3,7.5l3.3-7.5H171.3z"/>
		<path class="st3" d="M182.2,48.7v0.8h-6.1v-8.7h5.9v0.8h-5v3.1h4.5v0.8H177v3.2H182.2z"/>
		<path class="st3" d="M201.4,43.8c0,1.8-1.3,3-3.5,3h-2.3v2.7h-0.9v-8.7h3.2C200.1,40.8,201.4,41.9,201.4,43.8z M200.5,43.8
			c0-1.4-0.9-2.2-2.7-2.2h-2.3v4.3h2.3C199.6,45.9,200.5,45.1,200.5,43.8z"/>
		<path class="st3" d="M206.3,45.1c0-2.5,1.9-4.4,4.6-4.4c2.6,0,4.5,1.9,4.5,4.4s-1.9,4.4-4.5,4.4C208.2,49.5,206.3,47.7,206.3,45.1
			z M214.5,45.1c0-2.1-1.5-3.6-3.6-3.6c-2.1,0-3.7,1.5-3.7,3.6c0,2.1,1.6,3.6,3.7,3.6C212.9,48.7,214.5,47.2,214.5,45.1z"/>
		<path class="st3" d="M226.9,49.5l-2-2.8c-0.2,0-0.4,0-0.7,0h-2.3v2.8h-0.9v-8.7h3.2c2.2,0,3.5,1.1,3.5,3c0,1.4-0.7,2.3-2,2.7
			l2.1,3H226.9z M226.8,43.8c0-1.4-0.9-2.2-2.7-2.2h-2.3v4.3h2.3C225.9,45.9,226.8,45.1,226.8,43.8z"/>
		<path class="st3" d="M235,41.6h-3v-0.8h7v0.8h-3v7.9H235V41.6z"/>
		<path class="st3" d="M244.8,41.6V45h4.5v0.8h-4.5v3.7h-0.9v-8.7h5.9v0.8H244.8z"/>
		<path class="st3" d="M254.4,45.1c0-2.5,1.9-4.4,4.6-4.4c2.6,0,4.5,1.9,4.5,4.4s-1.9,4.4-4.5,4.4C256.3,49.5,254.4,47.7,254.4,45.1
			z M262.6,45.1c0-2.1-1.5-3.6-3.6-3.6c-2.1,0-3.7,1.5-3.7,3.6c0,2.1,1.6,3.6,3.7,3.6C261,48.7,262.6,47.2,262.6,45.1z"/>
		<path class="st3" d="M269,40.8h0.9v7.9h4.9v0.8H269V40.8z"/>
		<path class="st3" d="M279.8,40.8h0.9v8.7h-0.9V40.8z"/>
		<path class="st3" d="M286.3,45.1c0-2.5,1.9-4.4,4.6-4.4c2.6,0,4.5,1.9,4.5,4.4s-1.9,4.4-4.5,4.4C288.3,49.5,286.3,47.7,286.3,45.1
			z M294.5,45.1c0-2.1-1.5-3.6-3.6-3.6c-2.1,0-3.7,1.5-3.7,3.6c0,2.1,1.6,3.6,3.7,3.6C293,48.7,294.5,47.2,294.5,45.1z"/>
	</g>
</g>
<g>
	<path d="M53.7,45.8c-0.2,0-0.3-0.1-0.5-0.2L27.6,25.8c-0.2-0.2-0.3-0.4-0.3-0.7s0.2-0.5,0.4-0.6l25.6-13.6c0.2-0.1,0.5-0.1,0.8,0
		c0.2,0.1,0.4,0.4,0.4,0.7V45c0,0.3-0.2,0.6-0.4,0.7C53.9,45.8,53.8,45.8,53.7,45.8z M29.5,25.3l23.4,18.2V12.9L29.5,25.3z"/>
	<path d="M23,45.8c-0.1,0-0.2,0-0.3-0.1c-0.3-0.1-0.4-0.4-0.4-0.7V11.6c0-0.3,0.1-0.5,0.4-0.7c0.2-0.1,0.5-0.1,0.8,0L49,24.5
		c0.2,0.1,0.4,0.4,0.4,0.6c0,0.3-0.1,0.5-0.3,0.7L23.5,45.6C23.4,45.8,23.2,45.8,23,45.8z M23.8,12.9v30.6l23.4-18.2L23.8,12.9z"/>
	<polygon class="st4" points="60.2,17.2 14.2,17.2 37.2,57.1 	"/>
	<path d="M61.8,45.8H13.5c-0.3,0-0.5-0.2-0.7-0.4c-0.1-0.2-0.1-0.5,0-0.8L37,4.9c0.3-0.5,1-0.5,1.3,0l24.1,39.7
		c0.1,0.2,0.2,0.5,0,0.8C62.3,45.7,62,45.8,61.8,45.8z M14.9,44.3h45.5L37.6,6.8L14.9,44.3z"/>
</g>
</svg>
